<?xml version="1.0" encoding="UTF-8" standalone="no"?>
<!-- Created with Inkscape (http://www.inkscape.org/) -->

<svg
   xmlns:dc="http://purl.org/dc/elements/1.1/"
   xmlns:cc="http://creativecommons.org/ns#"
   xmlns:rdf="http://www.w3.org/1999/02/22-rdf-syntax-ns#"
   xmlns:svg="http://www.w3.org/2000/svg"
   xmlns="http://www.w3.org/2000/svg"
   xmlns:sodipodi="http://sodipodi.sourceforge.net/DTD/sodipodi-0.dtd"
   xmlns:inkscape="http://www.inkscape.org/namespaces/inkscape"
   inkscape:version="0.91 r13725"
   version="1.1"
   id="svg2"
   height="1000"
   width="1000"
   sodipodi:docname="xowl.svg"
   inkscape:export-filename="/home/laurent/xowl.png"
   inkscape:export-xdpi="23.040001"
   inkscape:export-ydpi="23.040001">
  <sodipodi:namedview
     id="base"
     pagecolor="#ffffff"
     bordercolor="#666666"
     borderopacity="1.0"
     inkscape:pageopacity="0.0"
     inkscape:pageshadow="2"
     inkscape:zoom="0.7"
     inkscape:cx="192.43753"
     inkscape:cy="456.08505"
     inkscape:document-units="px"
     inkscape:current-layer="layer5"
     showgrid="false"
     inkscape:window-width="1871"
     inkscape:window-height="1056"
     inkscape:window-x="49"
     inkscape:window-y="24"
     inkscape:window-maximized="1"
     showguides="true"
     inkscape:guide-bbox="true" />
  <defs
     id="defs4">
    <mask
       maskUnits="userSpaceOnUse"
       id="mask3362">
      <path
         sodipodi:nodetypes="cccccc"
         inkscape:connector-curvature="0"
         id="path3364"
         d="M -2.0881839e-6,280 350,630 700,630 700,980 -2.0881839e-6,980 Z"
         style="fill:#ffffff;fill-opacity:1;fill-rule:nonzero;stroke:none;stroke-width:62.5;stroke-miterlimit:4;stroke-dasharray:none;stroke-dashoffset:0;stroke-opacity:1" />
    </mask>
    <mask
       maskUnits="userSpaceOnUse"
       id="mask3368">
      <path
         style="fill:#ffffff;fill-opacity:1;fill-rule:nonzero;stroke:none;stroke-width:62.5;stroke-miterlimit:4;stroke-dasharray:none;stroke-dashoffset:0;stroke-opacity:1"
         d="M 521.89111,1108.1089 650,630.00001 475,326.89112 l 303.10889,-175 350.00001,606.21778 z"
         id="path3370"
         inkscape:connector-curvature="0"
         sodipodi:nodetypes="cccccc" />
    </mask>
    <mask
       maskUnits="userSpaceOnUse"
       id="mask3374">
      <path
         style="fill:#ffffff;fill-opacity:1;fill-rule:nonzero;stroke:none;stroke-width:62.5;stroke-miterlimit:4;stroke-dasharray:none;stroke-dashoffset:0;stroke-opacity:1"
         d="M 978.10889,241.89112 500,370.00001 325,673.1089 l -303.10889,-175 350,-606.21778 z"
         id="path3376"
         inkscape:connector-curvature="0"
         sodipodi:nodetypes="cccccc" />
    </mask>
  </defs>
  <metadata
     id="metadata7">
    <rdf:RDF>
      <cc:Work
         rdf:about="">
        <dc:format>image/svg+xml</dc:format>
        <dc:type
           rdf:resource="http://purl.org/dc/dcmitype/StillImage" />
        <dc:title />
      </cc:Work>
    </rdf:RDF>
  </metadata>
  <g
     inkscape:groupmode="layer"
     id="layer2"
     inkscape:label="LayerLeft"
     style="display:inline"
     sodipodi:insensitive="true">
    <path
       inkscape:connector-curvature="0"
       id="path4153"
       d="m 334.4668,280 -23.66407,52.27344 -1.80078,18.53515 4.64063,31.60157 -55.95117,14.99023 -11.78125,-29.68555 -10.82813,-15.15234 -46.63086,-33.4375 -26.90234,15.5332 5.64258,57.10157 7.70703,16.95312 19.82031,25.04688 -40.95898,40.95898 -25.04688,-19.82031 -16.95312,-7.70703 -57.101569,-5.64258 -15.533203,26.90234 33.4375,46.63086 15.152344,10.82813 29.685548,11.78125 -14.99023,55.95117 -31.601568,-4.64063 -18.535156,1.80078 -52.2734380881832,23.66407 0,31.0664 L 52.273436,669.19727 l 18.535156,1.80078 31.601568,-4.64063 14.99023,55.95117 -29.685548,11.78125 -15.152344,10.82813 -33.4375,46.63086 15.533203,26.90234 57.101569,-5.64258 16.95312,-7.70703 25.04688,-19.82031 40.95898,40.95898 -19.82031,25.04688 -7.70703,16.95312 -5.64258,57.10157 26.90234,15.5332 46.63086,-33.4375 10.82813,-15.15234 11.78125,-29.68555 55.95117,14.99023 -4.64063,31.60157 1.80078,18.53515 L 334.4668,980 l 31.0664,0 23.66407,-52.27344 1.80078,-18.53515 -4.64063,-31.60157 55.95117,-14.99023 11.78125,29.68555 10.82813,15.15234 46.63086,33.4375 26.90234,-15.5332 -5.64258,-57.10157 -7.70703,-16.95312 -19.82031,-25.04688 40.95898,-40.95898 25.04688,19.82031 16.95312,7.70703 57.10157,5.64258 15.5332,-26.90234 -33.4375,-46.63086 -15.15234,-10.82813 -29.68555,-11.78125 14.99023,-55.95117 31.60157,4.64063 18.53515,-1.80078 L 700,645.5332 l 0,-31.0664 -52.27344,-23.66407 -18.53515,-1.80078 -31.60157,4.64063 -14.99023,-55.95117 29.68555,-11.78125 15.15234,-10.82813 33.4375,-46.63086 -15.5332,-26.90234 -57.10157,5.64258 -16.95312,7.70703 -25.04688,19.82031 -40.95898,-40.95898 19.82031,-25.04688 7.70703,-16.95312 5.64258,-57.10157 -26.90234,-15.5332 -46.63086,33.4375 -10.82813,15.15234 -11.78125,29.68555 -55.95117,-14.99023 4.64063,-31.60157 -1.80078,-18.53515 L 365.5332,280 334.4668,280 Z M 350,455 A 175,175 0 0 1 525,630 175,175 0 0 1 350,805 175,175 0 0 1 175,630 175,175 0 0 1 350,455 Z"
       style="fill:#ef7c00;fill-opacity:1;stroke:none;stroke-width:1"
       mask="url(#mask3362)" />
  </g>
  <g
     inkscape:groupmode="layer"
     id="layer4"
     inkscape:label="LayerRight"
     style="display:inline"
     sodipodi:insensitive="true">
    <path
       inkscape:connector-curvature="0"
       id="path4153-7"
       d="m 634.4668,280.00001 -23.66407,52.27344 -1.80078,18.53515 4.64063,31.60157 -55.95117,14.99023 -11.78125,-29.68555 -10.82813,-15.15234 -46.63086,-33.4375 -26.90234,15.5332 5.64258,57.10157 7.70703,16.95312 19.82031,25.04688 -40.95898,40.95898 -25.04688,-19.82031 -16.95312,-7.70703 -57.10157,-5.64258 -15.5332,26.90234 33.4375,46.63086 15.15234,10.82813 29.68555,11.78125 -14.99023,55.95117 -31.60157,-4.64063 -18.53515,1.80078 L 300,614.46681 l 0,31.0664 52.27344,23.66407 18.53515,1.80078 31.60157,-4.64063 14.99023,55.95117 -29.68555,11.78125 -15.15234,10.82813 -33.4375,46.63086 15.5332,26.90234 57.10157,-5.64258 16.95312,-7.70703 25.04688,-19.82031 40.95898,40.95898 -19.82031,25.04688 -7.70703,16.95312 -5.64258,57.10157 26.90234,15.5332 46.63086,-33.4375 10.82813,-15.15234 11.78125,-29.68555 55.95117,14.99023 -4.64063,31.60157 1.80078,18.53515 23.66407,52.27344 31.0664,0 23.66407,-52.27344 1.80078,-18.53515 -4.64063,-31.60157 55.95117,-14.99023 11.78125,29.68555 10.82813,15.15234 46.63086,33.4375 26.90234,-15.5332 -5.64258,-57.10157 -7.70703,-16.95312 -19.82031,-25.04688 40.95898,-40.95898 25.04688,19.82031 16.95312,7.70703 57.10157,5.64258 15.5332,-26.90234 -33.4375,-46.63086 -15.15234,-10.82813 -29.68555,-11.78125 14.99023,-55.95117 31.60157,4.64063 18.53515,-1.80078 52.27344,-23.66407 0,-31.0664 -52.27344,-23.66407 -18.53515,-1.80078 -31.60157,4.64063 -14.99023,-55.95117 29.68555,-11.78125 15.15234,-10.82813 33.4375,-46.63086 -15.5332,-26.90234 -57.10157,5.64258 -16.95312,7.70703 -25.04688,19.82031 -40.95898,-40.95898 19.82031,-25.04688 7.70703,-16.95312 5.64258,-57.10157 -26.90234,-15.5332 -46.63086,33.4375 -10.82813,15.15234 -11.78125,29.68555 -55.95117,-14.99023 4.64063,-31.60157 -1.80078,-18.53515 -23.66407,-52.27344 -31.0664,0 z m 15.5332,175 a 175,175 0 0 1 175,175 175,175 0 0 1 -175,175 175,175 0 0 1 -175,-175 175,175 0 0 1 175,-175 z"
       style="fill:#bd1789;fill-opacity:1;stroke:none;stroke-width:1"
       mask="url(#mask3368)" />
  </g>
  <g
     inkscape:groupmode="layer"
     id="layer5"
     inkscape:label="LayerTop"
     style="display:inline"
     sodipodi:insensitive="true">
    <path
       inkscape:connector-curvature="0"
       id="path4153-71"
       d="m 484.4668,20.00001 -23.66407,52.27344 -1.80078,18.53515 4.64063,31.60157 -55.95117,14.99023 -11.78125,-29.68555 -10.82813,-15.15234 -46.63086,-33.4375 -26.90234,15.5332 5.64258,57.10157 7.70703,16.95312 19.82031,25.04688 -40.95898,40.95898 -25.04688,-19.82031 -16.95312,-7.70703 -57.10157,-5.64258 -15.5332,26.90234 33.4375,46.63086 15.15234,10.82813 29.68555,11.78125 -14.99023,55.95117 -31.60157,-4.64063 -18.53515,1.80078 L 150,354.46681 l 0,31.0664 52.27344,23.66407 18.53515,1.80078 31.60157,-4.64063 14.99023,55.95117 -29.68555,11.78125 -15.15234,10.82813 -33.4375,46.63086 15.5332,26.90234 57.10157,-5.64258 16.95312,-7.70703 25.04688,-19.82031 40.95898,40.95898 -19.82031,25.04688 -7.70703,16.95312 -5.64258,57.10157 26.90234,15.5332 46.63086,-33.4375 10.82813,-15.15234 11.78125,-29.68555 55.95117,14.99023 -4.64063,31.60157 1.80078,18.53515 23.66407,52.27344 31.0664,0 23.66407,-52.27344 1.80078,-18.53515 -4.64063,-31.60157 55.95117,-14.99023 11.78125,29.68555 10.82813,15.15234 46.63086,33.4375 26.90234,-15.5332 -5.64258,-57.10157 -7.70703,-16.95312 -19.82031,-25.04688 40.95898,-40.95898 25.04688,19.82031 16.95312,7.70703 57.10157,5.64258 15.5332,-26.90234 -33.4375,-46.63086 -15.15234,-10.82813 -29.68555,-11.78125 14.99023,-55.95117 31.60157,4.64063 18.53515,-1.80078 L 850,385.53321 l 0,-31.0664 -52.27344,-23.66407 -18.53515,-1.80078 -31.60157,4.64063 -14.99023,-55.95117 29.68555,-11.78125 15.15234,-10.82813 33.4375,-46.63086 -15.5332,-26.90234 -57.10157,5.64258 -16.95312,7.70703 -25.04688,19.82031 -40.95898,-40.95898 19.82031,-25.04688 7.70703,-16.95312 5.64258,-57.10157 -26.90234,-15.5332 -46.63086,33.4375 -10.82813,15.15234 -11.78125,29.68555 -55.95117,-14.99023 4.64063,-31.60157 -1.80078,-18.53515 -23.66407,-52.27344 -31.0664,0 z m 15.5332,175 a 175,175 0 0 1 175,175 175,175 0 0 1 -175,175 175,175 0 0 1 -175,-175 175,175 0 0 1 175,-175 z"
       style="fill:#86ba0c;fill-opacity:1;stroke:none;stroke-width:1"
       mask="url(#mask3374)" />
  </g>
</svg>
