<?xml version="1.0" encoding="UTF-8" standalone="no"?>
<svg
   xmlns:dc="http://purl.org/dc/elements/1.1/"
   xmlns:cc="http://creativecommons.org/ns#"
   xmlns:rdf="http://www.w3.org/1999/02/22-rdf-syntax-ns#"
   xmlns:svg="http://www.w3.org/2000/svg"
   xmlns="http://www.w3.org/2000/svg"
   version="1.1"
   id="xowl-logo"
   height="1000"
   width="1000">
  <defs id="mask-definitions">
    <mask id="mask-left" maskUnits="userSpaceOnUse">
      <path id="mask-left-path"
         d="M 0,280 350,630 700,630 700,980 0,980 Z"
         style="fill:#ffffff;fill-opacity:1;fill-rule:nonzero;stroke:none;stroke-width:62.5;stroke-miterlimit:4;stroke-dasharray:none;stroke-dashoffset:0;stroke-opacity:1"/>
    </mask>
    <mask id="mask-right" maskUnits="userSpaceOnUse">
      <path id="mask-right-path"
         d="M 522,1108 650,630 475,327 l 303,-175 350,606 z"
         style="fill:#ffffff;fill-opacity:1;fill-rule:nonzero;stroke:none;stroke-width:62.5;stroke-miterlimit:4;stroke-dasharray:none;stroke-dashoffset:0;stroke-opacity:1"/>
    </mask>
    <mask id="mask-top" maskUnits="userSpaceOnUse">
      <path id="mask-top-path"
         d="M 978,242 500,370 325,673 l -303,-175 350,-606 z"
         style="fill:#ffffff;fill-opacity:1;fill-rule:nonzero;stroke:none;stroke-width:62.5;stroke-miterlimit:4;stroke-dasharray:none;stroke-dashoffset:0;stroke-opacity:1"/>
    </mask>
  </defs>
  <g id="layer-left" style="display:inline" mask="url(#mask-left)">
    <path id="gear-left"
       style="fill:#ef7c00;fill-opacity:1;stroke:none;stroke-width:1"
       transform="rotate(0 350 630)"
       d="m 334.4668,280 -23.66407,52.27344 -1.80078,18.53515 4.64063,31.60157 -55.95117,14.99023 -11.78125,-29.68555 -10.82813,-15.15234 -46.63086,-33.4375 -26.90234,15.5332 5.64258,57.10157 7.70703,16.95312 19.82031,25.04688 -40.95898,40.95898 -25.04688,-19.82031 -16.95312,-7.70703 -57.101569,-5.64258 -15.533203,26.90234 33.4375,46.63086 15.152344,10.82813 29.685548,11.78125 -14.99023,55.95117 -31.601568,-4.64063 -18.535156,1.80078 -52.2734380881832,23.66407 0,31.0664 L 52.273436,669.19727 l 18.535156,1.80078 31.601568,-4.64063 14.99023,55.95117 -29.685548,11.78125 -15.152344,10.82813 -33.4375,46.63086 15.533203,26.90234 57.101569,-5.64258 16.95312,-7.70703 25.04688,-19.82031 40.95898,40.95898 -19.82031,25.04688 -7.70703,16.95312 -5.64258,57.10157 26.90234,15.5332 46.63086,-33.4375 10.82813,-15.15234 11.78125,-29.68555 55.95117,14.99023 -4.64063,31.60157 1.80078,18.53515 L 334.4668,980 l 31.0664,0 23.66407,-52.27344 1.80078,-18.53515 -4.64063,-31.60157 55.95117,-14.99023 11.78125,29.68555 10.82813,15.15234 46.63086,33.4375 26.90234,-15.5332 -5.64258,-57.10157 -7.70703,-16.95312 -19.82031,-25.04688 40.95898,-40.95898 25.04688,19.82031 16.95312,7.70703 57.10157,5.64258 15.5332,-26.90234 -33.4375,-46.63086 -15.15234,-10.82813 -29.68555,-11.78125 14.99023,-55.95117 31.60157,4.64063 18.53515,-1.80078 L 700,645.5332 l 0,-31.0664 -52.27344,-23.66407 -18.53515,-1.80078 -31.60157,4.64063 -14.99023,-55.95117 29.68555,-11.78125 15.15234,-10.82813 33.4375,-46.63086 -15.5332,-26.90234 -57.10157,5.64258 -16.95312,7.70703 -25.04688,19.82031 -40.95898,-40.95898 19.82031,-25.04688 7.70703,-16.95312 5.64258,-57.10157 -26.90234,-15.5332 -46.63086,33.4375 -10.82813,15.15234 -11.78125,29.68555 -55.95117,-14.99023 4.64063,-31.60157 -1.80078,-18.53515 L 365.5332,280 334.4668,280 Z M 350,455 A 175,175 0 0 1 525,630 175,175 0 0 1 350,805 175,175 0 0 1 175,630 175,175 0 0 1 350,455 Z"/>
  </g>
  <g id="layer-right" style="display:inline" mask="url(#mask-right)">
    <path id="gear-right"
       style="fill:#bd1789;fill-opacity:1;stroke:none;stroke-width:1"
       transform="rotate(0 650 630)"
       d="m 634.4668,280.00001 -23.66407,52.27344 -1.80078,18.53515 4.64063,31.60157 -55.95117,14.99023 -11.78125,-29.68555 -10.82813,-15.15234 -46.63086,-33.4375 -26.90234,15.5332 5.64258,57.10157 7.70703,16.95312 19.82031,25.04688 -40.95898,40.95898 -25.04688,-19.82031 -16.95312,-7.70703 -57.10157,-5.64258 -15.5332,26.90234 33.4375,46.63086 15.15234,10.82813 29.68555,11.78125 -14.99023,55.95117 -31.60157,-4.64063 -18.53515,1.80078 L 300,614.46681 l 0,31.0664 52.27344,23.66407 18.53515,1.80078 31.60157,-4.64063 14.99023,55.95117 -29.68555,11.78125 -15.15234,10.82813 -33.4375,46.63086 15.5332,26.90234 57.10157,-5.64258 16.95312,-7.70703 25.04688,-19.82031 40.95898,40.95898 -19.82031,25.04688 -7.70703,16.95312 -5.64258,57.10157 26.90234,15.5332 46.63086,-33.4375 10.82813,-15.15234 11.78125,-29.68555 55.95117,14.99023 -4.64063,31.60157 1.80078,18.53515 23.66407,52.27344 31.0664,0 23.66407,-52.27344 1.80078,-18.53515 -4.64063,-31.60157 55.95117,-14.99023 11.78125,29.68555 10.82813,15.15234 46.63086,33.4375 26.90234,-15.5332 -5.64258,-57.10157 -7.70703,-16.95312 -19.82031,-25.04688 40.95898,-40.95898 25.04688,19.82031 16.95312,7.70703 57.10157,5.64258 15.5332,-26.90234 -33.4375,-46.63086 -15.15234,-10.82813 -29.68555,-11.78125 14.99023,-55.95117 31.60157,4.64063 18.53515,-1.80078 52.27344,-23.66407 0,-31.0664 -52.27344,-23.66407 -18.53515,-1.80078 -31.60157,4.64063 -14.99023,-55.95117 29.68555,-11.78125 15.15234,-10.82813 33.4375,-46.63086 -15.5332,-26.90234 -57.10157,5.64258 -16.95312,7.70703 -25.04688,19.82031 -40.95898,-40.95898 19.82031,-25.04688 7.70703,-16.95312 5.64258,-57.10157 -26.90234,-15.5332 -46.63086,33.4375 -10.82813,15.15234 -11.78125,29.68555 -55.95117,-14.99023 4.64063,-31.60157 -1.80078,-18.53515 -23.66407,-52.27344 -31.0664,0 z m 15.5332,175 a 175,175 0 0 1 175,175 175,175 0 0 1 -175,175 175,175 0 0 1 -175,-175 175,175 0 0 1 175,-175 z"/>
  </g>
  <g id="layer-top" style="display:inline" mask="url(#mask-top)">
    <path id="gear-top"
       style="fill:#86ba0c;fill-opacity:1;stroke:none;stroke-width:1"
       transform="rotate(0 500 370)"
       d="m 484.4668,20.00001 -23.66407,52.27344 -1.80078,18.53515 4.64063,31.60157 -55.95117,14.99023 -11.78125,-29.68555 -10.82813,-15.15234 -46.63086,-33.4375 -26.90234,15.5332 5.64258,57.10157 7.70703,16.95312 19.82031,25.04688 -40.95898,40.95898 -25.04688,-19.82031 -16.95312,-7.70703 -57.10157,-5.64258 -15.5332,26.90234 33.4375,46.63086 15.15234,10.82813 29.68555,11.78125 -14.99023,55.95117 -31.60157,-4.64063 -18.53515,1.80078 L 150,354.46681 l 0,31.0664 52.27344,23.66407 18.53515,1.80078 31.60157,-4.64063 14.99023,55.95117 -29.68555,11.78125 -15.15234,10.82813 -33.4375,46.63086 15.5332,26.90234 57.10157,-5.64258 16.95312,-7.70703 25.04688,-19.82031 40.95898,40.95898 -19.82031,25.04688 -7.70703,16.95312 -5.64258,57.10157 26.90234,15.5332 46.63086,-33.4375 10.82813,-15.15234 11.78125,-29.68555 55.95117,14.99023 -4.64063,31.60157 1.80078,18.53515 23.66407,52.27344 31.0664,0 23.66407,-52.27344 1.80078,-18.53515 -4.64063,-31.60157 55.95117,-14.99023 11.78125,29.68555 10.82813,15.15234 46.63086,33.4375 26.90234,-15.5332 -5.64258,-57.10157 -7.70703,-16.95312 -19.82031,-25.04688 40.95898,-40.95898 25.04688,19.82031 16.95312,7.70703 57.10157,5.64258 15.5332,-26.90234 -33.4375,-46.63086 -15.15234,-10.82813 -29.68555,-11.78125 14.99023,-55.95117 31.60157,4.64063 18.53515,-1.80078 L 850,385.53321 l 0,-31.0664 -52.27344,-23.66407 -18.53515,-1.80078 -31.60157,4.64063 -14.99023,-55.95117 29.68555,-11.78125 15.15234,-10.82813 33.4375,-46.63086 -15.5332,-26.90234 -57.10157,5.64258 -16.95312,7.70703 -25.04688,19.82031 -40.95898,-40.95898 19.82031,-25.04688 7.70703,-16.95312 5.64258,-57.10157 -26.90234,-15.5332 -46.63086,33.4375 -10.82813,15.15234 -11.78125,29.68555 -55.95117,-14.99023 4.64063,-31.60157 -1.80078,-18.53515 -23.66407,-52.27344 -31.0664,0 z m 15.5332,175 a 175,175 0 0 1 175,175 175,175 0 0 1 -175,175 175,175 0 0 1 -175,-175 175,175 0 0 1 175,-175 z"/>
  </g>
</svg>
